<svg xmlns="http://www.w3.org/2000/svg" xmlns:xlink="http://www.w3.org/1999/xlink" viewBox="0 0 1080 1080"><defs><style>.cls-1{fill:#333;}.cls-2{fill:#f2f2f2;}.cls-3{fill:url(#linear-gradient);}.cls-4{fill:url(#linear-gradient-2);}</style><linearGradient id="linear-gradient" x1="207.5" y1="616.5" x2="370.06" y2="779.06" gradientUnits="userSpaceOnUse"><stop offset="0" stop-color="#f7931e"/><stop offset="1" stop-color="#f15a24"/></linearGradient><linearGradient id="linear-gradient-2" x1="748.61" y1="316.99" x2="1045.8" y2="614.17" xlink:href="#linear-gradient"/></defs><g id="Layer_2" data-name="Layer 2"><rect class="cls-1" x="-0.5" width="1080.5" height="1080" rx="70"/><path class="cls-2" d="M655,789a34.87,34.87,0,0,1-24.75-10.26L180.94,329.23a104.34,104.34,0,0,1-29.36-56.05,106.38,106.38,0,0,1,43.23-104.32A104.18,104.18,0,0,1,255.21,150H895a35,35,0,0,1,0,70H255.21c-21.7,0-30.23,16.53-32.33,21.6s-7.76,22.8,7.58,38.14L679.75,729.26A35,35,0,0,1,655,789Z"/><path class="cls-2" d="M825.13,930.09H185.34a35,35,0,0,1,0-70H825.13c21.69,0,30.23-16.53,32.33-21.6s7.76-22.79-7.58-38.14L400.37,350.62a35,35,0,1,1,49.51-49.49L899.39,750.87a104.13,104.13,0,0,1,29.36,56A104.81,104.81,0,0,1,825.13,930.09Z"/><path class="cls-3" d="M265,789A115,115,0,1,1,380,674,115.13,115.13,0,0,1,265,789Zm0-180a65,65,0,1,0,65,65A65.08,65.08,0,0,0,265,609Z"/><path class="cls-4" d="M885,615.73a44.86,44.86,0,0,1-31.77-13.2L618.5,367.82A45,45,0,0,1,650.32,291H885a45.05,45.05,0,0,1,45,45V570.71a45,45,0,0,1-45,45ZM662.39,341,880,558.64V341Z"/></g></svg>